<svg width="61" height="61" viewBox="0 0 61 61" fill="none" xmlns="http://www.w3.org/2000/svg">
<path d="M42.486 23.9772C43.8148 23.9772 45.0893 23.4493 46.0289 22.5097C46.9686 21.57 47.4965 20.2955 47.4965 18.9667C47.4965 17.6378 46.9686 16.3634 46.0289 15.4237C45.0893 14.484 43.8148 13.9561 42.486 13.9561C41.1571 13.9561 39.8826 14.484 38.943 15.4237C38.0033 16.3634 37.4754 17.6378 37.4754 18.9667C37.4754 20.2955 38.0033 21.57 38.943 22.5097C39.8826 23.4493 41.1571 23.9772 42.486 23.9772Z" fill="white"/>
<path d="M0.731579 7.27543C0.731579 5.5036 1.43544 3.80433 2.68831 2.55146C3.94119 1.29858 5.64045 0.594727 7.41228 0.594727H54.1772C55.949 0.594727 57.6483 1.29858 58.9012 2.55146C60.154 3.80433 60.8579 5.5036 60.8579 7.27543V54.0403C60.8579 55.8122 60.154 57.5114 58.9012 58.7643C57.6483 60.0172 55.949 60.721 54.1772 60.721H7.41228C5.64045 60.721 3.94119 60.0172 2.68831 58.7643C1.43544 57.5114 0.731579 55.8122 0.731579 54.0403V7.27543ZM54.1772 7.27543H7.41228V33.731L18.686 24.7121C19.2784 24.2377 20.0147 23.9793 20.7737 23.9793C21.5326 23.9793 22.269 24.2377 22.8614 24.7121L37.2249 36.2029L41.7945 31.6366C42.4209 31.0104 43.2704 30.6586 44.1561 30.6586C45.0419 30.6586 45.8914 31.0104 46.5178 31.6366L54.1772 39.296V7.27543ZM7.41228 54.0403H54.1772V48.7425L44.1561 38.7215L39.8371 43.0406C39.2559 43.6221 38.4806 43.9689 37.6596 44.0145C36.8387 44.0601 36.0298 43.8014 35.3877 43.2878L20.7737 31.5932L7.41228 42.2823V54.0403Z" fill="white"/>
</svg>
