<svg width="34" height="34" viewBox="0 0 34 34" fill="none" xmlns="http://www.w3.org/2000/svg">
<path d="M32.803 28.7355C33.9546 29.8883 33.9546 31.6814 32.803 32.8342C32.2271 33.4105 31.5234 33.6667 30.7556 33.6667C29.9879 33.6667 29.2841 33.4105 28.7083 32.8342L17 21.1147L5.29176 32.8342C4.71594 33.4105 4.01217 33.6667 3.24441 33.6667C2.47666 33.6667 1.77288 33.4105 1.19707 32.8342C0.0454357 31.6814 0.0454357 29.8883 1.19707 28.7355L12.9053 17.0161L1.19707 5.29655C0.0454357 4.14381 0.0454357 2.35066 1.19707 1.19793C2.3487 0.0451896 4.14013 0.0451896 5.29176 1.19793L17 12.9174L28.7083 1.19793C29.8599 0.0451896 31.6513 0.0451896 32.803 1.19793C33.9546 2.35066 33.9546 4.14381 32.803 5.29655L21.0947 17.0161L32.803 28.7355Z" fill="#FF0000"/>
</svg>
