<svg width="35" height="34" viewBox="0 0 35 34" fill="none" xmlns="http://www.w3.org/2000/svg">
<path d="M16.622 1.03953C16.9811 0.320155 18.0189 0.320155 18.378 1.03953L23.0274 10.352C23.17 10.6376 23.4457 10.8356 23.7646 10.8814L34.1606 12.3747C34.9638 12.49 35.2844 13.4656 34.7032 14.0256L27.1806 21.2743C26.9498 21.4966 26.8447 21.817 26.8991 22.131L28.6749 32.3663C28.8122 33.1569 27.9726 33.76 27.2541 33.3867L17.9556 28.5542C17.6704 28.4059 17.3297 28.4059 17.0444 28.5542L7.74579 33.3867C7.02752 33.76 6.18802 33.1569 6.32519 32.3663L8.10102 22.131C8.15556 21.817 8.0502 21.4966 7.81942 21.2743L0.296755 14.0256C-0.284372 13.4656 0.0362988 12.49 0.839392 12.3747L11.2356 10.8814C11.5545 10.8356 11.8301 10.6376 11.9727 10.352L16.622 1.03953Z" fill="#FAFF00"/>
</svg>
