<svg width="211" height="32" viewBox="0 0 211 32" fill="none" xmlns="http://www.w3.org/2000/svg">
<path d="M162.987 19.7453H159.344C159.065 19.7453 158.802 19.6369 158.589 19.4509C158.392 19.2649 158.277 19.0169 158.26 18.7534V17.9629C158.26 17.6994 158.375 17.4514 158.589 17.2654C158.786 17.0793 159.048 16.9709 159.344 16.9709H162.462C162.741 16.9709 163.02 16.8624 163.217 16.6764C163.414 16.4904 163.529 16.2424 163.529 15.9789C163.529 15.7154 163.414 15.4674 163.217 15.2814C163.02 15.0954 162.741 14.9868 162.462 14.9868H159.327C159.048 14.9868 158.786 14.8784 158.572 14.6924C158.375 14.5064 158.26 14.2584 158.244 13.9949V13.2043C158.244 12.9408 158.359 12.6928 158.572 12.5068C158.769 12.3208 159.032 12.2124 159.327 12.2124H162.888C163.167 12.2124 163.446 12.1038 163.643 11.9178C163.84 11.7318 163.955 11.4838 163.955 11.2203C163.955 10.9568 163.84 10.7088 163.643 10.5229C163.446 10.3369 163.167 10.2284 162.888 10.2284H158.605C158.441 10.2284 158.277 10.2748 158.145 10.3678C158.014 10.4608 157.932 10.6004 157.899 10.7554L155.618 20.7839V20.9853C155.651 21.2178 155.782 21.4348 155.996 21.5743C156.192 21.7293 156.439 21.7914 156.701 21.7759H162.987C163.266 21.7759 163.545 21.6674 163.742 21.4814C163.939 21.2954 164.054 21.0474 164.054 20.7839C164.054 20.5204 163.939 20.2724 163.742 20.0864C163.545 19.9004 163.266 19.7918 162.987 19.7918V19.7453Z" fill="white"/>
<path d="M83.7838 10.2593H82.356C82.1426 10.2593 81.9457 10.3214 81.7651 10.4299C81.5846 10.5384 81.4533 10.6778 81.3548 10.8638L78.2202 17.9009C78.2202 17.9164 78.2202 17.9319 78.2038 17.9474C78.1874 17.9629 78.171 17.9628 78.1545 17.9628C78.0889 17.9628 78.0889 17.9629 78.0889 17.9009L74.9543 10.8638C74.8722 10.6778 74.7573 10.5228 74.5932 10.3988C74.3142 10.1973 73.9531 10.4608 73.8875 10.8018L71.5078 20.9389C71.4914 21.0473 71.5078 21.1713 71.5734 21.2643C71.6555 21.4193 71.7868 21.5588 71.9509 21.6518C72.115 21.7448 72.312 21.7913 72.4925 21.7913H72.9192C73.1982 21.7759 73.4608 21.6674 73.6577 21.4813C73.8547 21.2953 73.9695 21.0473 73.9695 20.7993V14.2893C73.9695 14.2738 73.9695 14.2583 73.986 14.2428C74.0024 14.2273 74.0188 14.2274 74.0352 14.2274C74.0516 14.2274 74.068 14.2273 74.0844 14.2428C74.1008 14.2583 74.1008 14.2738 74.1008 14.2893L77.0221 21.1249C77.1042 21.3109 77.2355 21.4658 77.416 21.5743C77.5965 21.6828 77.8099 21.7293 78.0232 21.7293H78.3022C78.5156 21.7293 78.7125 21.6673 78.8931 21.5588C79.0736 21.4503 79.2049 21.3109 79.3034 21.1249L82.2247 14.3513C82.2247 14.3358 82.2247 14.3204 82.2411 14.3049C82.2575 14.2894 82.2739 14.2893 82.2903 14.2893C82.3067 14.2893 82.3231 14.2894 82.3395 14.3049C82.356 14.3204 82.356 14.3358 82.356 14.3513V20.7993C82.356 21.0628 82.4708 21.3108 82.6842 21.4968C82.8811 21.6828 83.1437 21.7913 83.4391 21.7913H83.8658C84.1448 21.7913 84.4074 21.6828 84.6208 21.4968C84.8177 21.3108 84.9326 21.0628 84.949 20.7993V11.2359C84.8998 10.9724 84.7521 10.7243 84.5387 10.5539C84.3418 10.3834 84.0628 10.2748 83.7838 10.2593Z" fill="white"/>
<path d="M116.46 15.6378H113.325C113.062 15.6378 112.8 15.7308 112.619 15.9168C112.439 16.0873 112.324 16.3353 112.324 16.5678C112.324 16.8158 112.422 17.0483 112.619 17.2188C112.8 17.3893 113.062 17.4978 113.325 17.4978H113.899C114.474 17.4978 115.048 17.9628 114.753 18.4898C114.326 19.3578 113.473 19.8228 112.11 19.8228C110.108 19.8228 108.894 18.4278 108.894 16.0408C108.894 13.6538 110.174 12.2588 112.11 12.2588C112.554 12.2433 112.997 12.3208 113.407 12.5068C113.801 12.6928 114.146 12.9718 114.392 13.3128C114.507 13.4988 114.671 13.6693 114.868 13.7933C115.065 13.9173 115.294 13.9793 115.541 13.9793H116.181C116.328 13.9948 116.476 13.9638 116.607 13.9173C116.739 13.8708 116.853 13.7778 116.952 13.6848C117.05 13.5763 117.1 13.4523 117.132 13.3283C117.165 13.1888 117.149 13.0648 117.116 12.9253C116.673 12.0573 115.967 11.3288 115.065 10.8328C114.178 10.3368 113.144 10.0888 112.11 10.1353C108.828 10.1353 106.334 12.3208 106.334 16.0408C106.334 19.7608 108.68 21.9463 112.176 21.9463C115.311 21.9463 117.526 20.0863 117.526 17.0948V16.6298C117.526 16.5058 117.51 16.3663 117.444 16.2423C117.395 16.1183 117.313 16.0098 117.215 15.9168C117.116 15.8238 117.001 15.7463 116.87 15.6998C116.739 15.6533 116.607 15.6378 116.46 15.6378Z" fill="white"/>
<path d="M97.9143 10.9259C97.8487 10.7399 97.701 10.5693 97.5204 10.4453C97.3399 10.3213 97.1266 10.2593 96.9132 10.2593H95.0587C94.8453 10.2593 94.632 10.3213 94.4514 10.4453C94.2709 10.5693 94.1396 10.7244 94.0575 10.9259L90.4962 20.4739C90.447 20.6289 90.4305 20.7838 90.447 20.9389C90.4634 21.0939 90.529 21.2488 90.6275 21.3728C90.726 21.4968 90.8573 21.6053 91.005 21.6828C91.1527 21.7603 91.3168 21.7913 91.4809 21.8068H92.0553C92.2687 21.8068 92.482 21.7449 92.6625 21.6209C92.8431 21.4969 92.9744 21.3418 93.0564 21.1403L93.4831 19.8849C93.5488 19.6989 93.6965 19.5283 93.877 19.4043C94.0575 19.2803 94.2709 19.2184 94.4843 19.2184H97.4055C97.6189 19.2184 97.8323 19.2803 98.0128 19.4043C98.1933 19.5283 98.3246 19.6834 98.4067 19.8849L98.8334 21.1403C98.899 21.3263 99.0467 21.4969 99.2272 21.6209C99.4078 21.7449 99.6211 21.8068 99.8345 21.8068H100.409C100.573 21.8068 100.737 21.7603 100.885 21.6828C101.033 21.6053 101.164 21.4968 101.262 21.3728C101.361 21.2488 101.426 21.0939 101.443 20.9389C101.459 20.7838 101.459 20.6289 101.394 20.4739L97.9143 10.9259ZM96.0926 17.2343H95.8793C95.7151 17.2343 95.551 17.1878 95.3869 17.1103C95.2392 17.0328 95.1079 16.9243 95.0094 16.8003C94.911 16.6763 94.8453 16.5214 94.8289 16.3664C94.8125 16.2113 94.8125 16.0564 94.8781 15.9014L95.9449 12.8478C95.9449 12.8323 95.9449 12.8168 95.9613 12.8013C95.9777 12.7858 95.9941 12.7859 96.0106 12.7859C96.027 12.7859 96.0434 12.7858 96.0598 12.8013C96.0762 12.8168 96.0762 12.8323 96.0762 12.8478L97.143 15.9014C97.1758 16.0564 97.1758 16.2113 97.143 16.3664C97.1101 16.5214 97.0445 16.6608 96.9296 16.8003C96.8311 16.9243 96.6998 17.0328 96.5521 17.1103C96.4373 17.1723 96.2731 17.2188 96.0926 17.2343Z" fill="white"/>
<path d="M124.731 10.2593H124.239C123.96 10.2593 123.697 10.3679 123.484 10.5539C123.287 10.7399 123.172 10.9878 123.156 11.2513V20.8149C123.156 21.0784 123.27 21.3264 123.484 21.5124C123.681 21.6984 123.943 21.8068 124.239 21.8068H124.731C125.01 21.8068 125.273 21.6984 125.486 21.5124C125.683 21.3264 125.798 21.0784 125.814 20.8149V11.2513C125.798 10.9878 125.683 10.7553 125.486 10.5693C125.273 10.3833 125.01 10.2748 124.731 10.2593Z" fill="white"/>
<path d="M137.22 12.2434C137.696 12.2279 138.172 12.3363 138.599 12.5378C139.026 12.7548 139.387 13.0493 139.649 13.4368C139.748 13.6693 139.912 13.8708 140.125 14.0103C140.339 14.1498 140.601 14.2274 140.864 14.2274H141.356C141.504 14.2429 141.652 14.2118 141.783 14.1653C141.914 14.1188 142.029 14.0258 142.128 13.9328C142.226 13.8243 142.275 13.7003 142.308 13.5763C142.341 13.4368 142.325 13.3129 142.292 13.1734C141.586 11.1739 139.649 10.0578 137.155 10.0578C133.872 10.0578 131.378 12.1814 131.378 15.9634C131.378 19.7454 133.807 21.8688 137.155 21.8688C139.797 21.8688 141.586 20.5359 142.226 18.8773C142.275 18.7533 142.275 18.6138 142.242 18.4743C142.21 18.3348 142.144 18.2108 142.062 18.1178C141.963 18.0093 141.849 17.9318 141.717 17.8853C141.586 17.8388 141.438 17.8079 141.291 17.8234H140.716C140.454 17.8389 140.207 17.9318 139.994 18.0713C139.781 18.2108 139.617 18.3968 139.502 18.6293C139.272 19.0168 138.911 19.3269 138.501 19.5284C138.09 19.7454 137.614 19.8383 137.138 19.8228C135.284 19.8228 134.004 18.4899 134.004 16.0409C134.02 13.5764 135.3 12.2434 137.22 12.2434Z" fill="white"/>
<path d="M174.18 10.2593H170.832C170.553 10.2593 170.29 10.3679 170.077 10.5539C169.88 10.7399 169.765 10.9878 169.749 11.2513V20.8149C169.749 21.0784 169.863 21.3264 170.077 21.5124C170.274 21.6984 170.536 21.8068 170.832 21.8068H174.18C177.954 21.8068 180.252 19.6213 180.252 16.0253C180.252 12.4448 177.889 10.2593 174.18 10.2593ZM174.032 19.6834H173.458C173.179 19.6834 172.916 19.5749 172.703 19.3888C172.506 19.2028 172.391 18.9548 172.374 18.6913V13.3128C172.374 13.0493 172.489 12.8013 172.703 12.6153C172.9 12.4293 173.162 12.3209 173.458 12.3209H174.032C176.379 12.3209 177.593 13.4523 177.593 15.9788C177.61 18.4898 176.395 19.6834 174.032 19.6834Z" fill="white"/>
<path d="M193.086 19.7453H189.443C189.164 19.7453 188.901 19.6369 188.688 19.4509C188.491 19.2649 188.376 19.0169 188.36 18.7534V17.9629C188.36 17.6994 188.474 17.4514 188.688 17.2654C188.885 17.0793 189.147 16.9709 189.443 16.9709H192.577C192.856 16.9709 193.135 16.8624 193.332 16.6764C193.529 16.4904 193.644 16.2424 193.644 15.9789C193.644 15.7154 193.529 15.4674 193.332 15.2814C193.135 15.0954 192.856 14.9868 192.577 14.9868H189.443C189.164 14.9868 188.901 14.8784 188.688 14.6924C188.491 14.5064 188.376 14.2584 188.36 13.9949V13.2043C188.36 12.9408 188.474 12.6928 188.688 12.5068C188.885 12.3208 189.147 12.2124 189.443 12.2124H193.004C193.283 12.2124 193.562 12.1038 193.759 11.9178C193.956 11.7318 194.071 11.4838 194.071 11.2203C194.071 10.9568 193.956 10.7088 193.759 10.5229C193.562 10.3369 193.283 10.2284 193.004 10.2284H186.8C186.521 10.2284 186.259 10.3369 186.046 10.5229C185.849 10.7088 185.734 10.9568 185.717 11.2203V20.7839C185.717 21.0474 185.832 21.2954 186.046 21.4814C186.242 21.6674 186.505 21.7759 186.8 21.7759H193.086C193.365 21.7759 193.628 21.6674 193.841 21.4814C194.038 21.2954 194.153 21.0474 194.169 20.7839C194.169 20.6599 194.153 20.5204 194.087 20.3964C194.038 20.2724 193.956 20.1639 193.857 20.0709C193.759 19.9779 193.644 19.9004 193.513 19.8539C193.365 19.7764 193.234 19.7453 193.086 19.7453Z" fill="white"/>
<path d="M209.219 10.2593H208.727C208.448 10.2593 208.185 10.3679 207.972 10.5539C207.775 10.7399 207.66 10.9878 207.643 11.2513V17.4203C207.643 17.4823 207.643 17.4824 207.578 17.4824H207.512L202.523 10.7088C202.424 10.5849 202.293 10.4763 202.145 10.4143C201.998 10.3523 201.834 10.3059 201.669 10.3214H200.997C200.718 10.3214 200.455 10.4299 200.242 10.6159C200.045 10.8019 199.93 11.0499 199.913 11.3134V20.8768C199.913 21.1403 200.028 21.3883 200.242 21.5743C200.439 21.7603 200.701 21.8689 200.997 21.8689H201.489C201.768 21.8689 202.031 21.7603 202.244 21.5743C202.441 21.3883 202.556 21.1403 202.572 20.8768V14.6303C202.572 14.6148 202.572 14.5993 202.589 14.5838C202.605 14.5683 202.621 14.5684 202.638 14.5684H202.703L207.775 21.3418C207.873 21.4658 208.004 21.5744 208.152 21.6364C208.3 21.6984 208.464 21.7448 208.628 21.7293H209.268C209.547 21.7293 209.81 21.6209 210.023 21.4349C210.22 21.2489 210.335 21.0009 210.351 20.7374V11.1739C210.302 10.9258 210.171 10.6934 209.974 10.5384C209.744 10.3679 209.481 10.2748 209.219 10.2593Z" fill="white"/>
<path d="M40.7029 8.15135L44.0017 11.8249C44.3791 12.2434 44.7074 12.5689 44.8551 12.7704C45.8398 13.7004 46.3978 14.9559 46.3978 16.2579C46.2993 17.7924 45.249 18.8463 44.2642 19.9778L41.9502 22.5353L40.7521 23.8684C40.7029 23.9149 40.6865 23.9769 40.6701 24.0389C40.6537 24.1009 40.6701 24.1628 40.7029 24.2093C40.7357 24.2713 40.7685 24.3179 40.8342 24.3489C40.8834 24.3799 40.9491 24.3953 41.0147 24.3953H53.061C54.8991 24.3953 57.2131 25.8524 57.0818 28.0688C57.0818 29.0763 56.6387 30.0373 55.8838 30.7503C55.1124 31.4633 54.0785 31.8664 52.9953 31.8664H34.1218C32.8745 31.8664 29.5429 31.9904 28.6074 29.3089C28.4105 28.7509 28.3777 28.1463 28.5254 27.5728C28.8044 26.7204 29.2311 25.9144 29.7891 25.2014C30.741 23.8684 31.7585 22.5508 32.776 21.2643C34.089 19.5748 35.4183 17.9473 36.7477 16.2268C36.7969 16.1648 36.8133 16.1028 36.8133 16.0254C36.8133 15.9479 36.7805 15.8859 36.7477 15.8239L31.9554 10.5074C31.9226 10.4764 31.8898 10.4453 31.8405 10.4143C31.7913 10.3988 31.7421 10.3834 31.6928 10.3834C31.6436 10.3834 31.5944 10.3988 31.5451 10.4143C31.4959 10.4298 31.4631 10.4609 31.4303 10.5074C30.1501 12.1194 24.5209 19.2648 23.3228 20.7218C22.1248 22.1633 19.1707 22.2563 17.5295 20.7218L10.0293 13.7159C9.98007 13.6694 9.91443 13.6384 9.84878 13.6229C9.78313 13.6074 9.71748 13.6229 9.65184 13.6384C9.58619 13.6694 9.53696 13.7004 9.50413 13.7624C9.47131 13.8089 9.43848 13.8709 9.45489 13.9329V27.4024C9.47131 28.3634 9.1759 29.2934 8.58507 30.0839C7.99425 30.8744 7.17366 31.4634 6.20537 31.7889C5.58172 31.9904 4.92525 32.0523 4.28519 31.9593C3.64513 31.8663 3.02148 31.6493 2.49631 31.2928C1.95472 30.9363 1.52801 30.4713 1.2326 29.9289C0.937189 29.3864 0.773071 28.7819 0.773071 28.1774V3.95086C0.822307 3.08286 1.15054 2.24585 1.74137 1.54835C2.33219 0.866353 3.11995 0.370352 4.0226 0.137852C4.79395 -0.0481479 5.61454 -0.0481479 6.3859 0.137852C7.15725 0.339352 7.86296 0.711354 8.43737 1.25385L19.9748 11.9954C20.0077 12.0264 20.0569 12.0574 20.0897 12.0729C20.139 12.0884 20.1882 12.0884 20.2374 12.0884C20.2867 12.0884 20.3359 12.0728 20.3687 12.0418C20.418 12.0263 20.4508 11.9954 20.4836 11.9489L28.6731 1.39335C29.0505 0.959353 29.5265 0.618353 30.0681 0.385853C30.6097 0.153353 31.2005 0.0138539 31.7913 0.0138539H53.0938C53.6846 0.0138539 54.259 0.137856 54.7842 0.354856C55.3094 0.587356 55.7853 0.912853 56.1792 1.31585C56.5567 1.71885 56.8521 2.19935 57.0162 2.72635C57.1803 3.25335 57.2295 3.79586 57.1475 4.33836C56.9998 5.26836 56.491 6.12085 55.7197 6.72535C54.9483 7.32985 53.9636 7.67085 52.9461 7.65535H41.0147C40.9491 7.65535 40.8998 7.67085 40.8506 7.70185C40.8014 7.73285 40.7521 7.77936 40.7357 7.82586C40.7029 7.87236 40.7029 7.93436 40.7029 7.98086C40.6537 8.04286 40.6701 8.10485 40.7029 8.15135Z" fill="white"/>
</svg>
