<svg width="66" height="66" viewBox="0 0 66 66" fill="none" xmlns="http://www.w3.org/2000/svg">
<path fill-rule="evenodd" clip-rule="evenodd" d="M33 0C51.2254 0 66 14.7746 66 33C66 51.2254 51.2254 66 33 66C14.7746 66 0 51.2254 0 33C0 14.7746 14.7746 0 33 0ZM33 6.6C18.4197 6.6 6.6 18.4197 6.6 33C6.6 47.5803 18.4197 59.4 33 59.4C47.5803 59.4 59.4 47.5803 59.4 33C59.4 18.4197 47.5803 6.6 33 6.6ZM33 26.4C34.8225 26.4 36.3 27.8775 36.3 29.7V49.5C36.3 51.3225 34.8225 52.8 33 52.8C31.1775 52.8 29.7 51.3225 29.7 49.5V29.7C29.7 27.8775 31.1775 26.4 33 26.4ZM33 13.2C34.8225 13.2 36.3 14.6775 36.3 16.5C36.3 18.3225 34.8225 19.8 33 19.8C31.1775 19.8 29.7 18.3225 29.7 16.5C29.7 14.6775 31.1775 13.2 33 13.2Z" fill="white"/>
</svg>
