<svg width="35" height="33" viewBox="0 0 35 33" fill="none" xmlns="http://www.w3.org/2000/svg">
<path d="M16.622 0.539535C16.9811 -0.179845 18.0189 -0.179845 18.378 0.539535L23.0274 9.85196C23.17 10.1376 23.4457 10.3356 23.7646 10.3814L34.1606 11.8747C34.9638 11.99 35.2844 12.9656 34.7032 13.5256L27.1806 20.7743C26.9498 20.9966 26.8447 21.317 26.8991 21.631L28.6749 31.8663C28.8122 32.6569 27.9726 33.26 27.2541 32.8867L17.9556 28.0542C17.6704 27.9059 17.3297 27.9059 17.0444 28.0542L7.74579 32.8867C7.02752 33.26 6.18802 32.6569 6.32519 31.8663L8.10102 21.631C8.15556 21.317 8.0502 20.9966 7.81942 20.7743L0.296755 13.5256C-0.284372 12.9656 0.0362988 11.99 0.839392 11.8747L11.2356 10.3814C11.5545 10.3356 11.8301 10.1376 11.9727 9.85196L16.622 0.539535Z" fill="#FAFF00"/>
</svg>
